<?xml version="1.0" encoding="utf-8"?>
<!-- Generator: Adobe Illustrator 28.0.0, SVG Export Plug-In . SVG Version: 6.00 Build 0)  -->
<svg version="1.1" id="Layer_2_00000091703869193705101290000016347625697648989887_"
	 xmlns="http://www.w3.org/2000/svg" xmlns:xlink="http://www.w3.org/1999/xlink" x="0px" y="0px" viewBox="0 0 1920 1081.3"
	 style="enable-background:new 0 0 1920 1081.3;" xml:space="preserve">
<style type="text/css">
	.st0{fill:url(#SVGID_1_);}
	.st1{fill:#FFFFFF;}
</style>
<g id="Layer_1-2">
	
		<linearGradient id="SVGID_1_" gradientUnits="userSpaceOnUse" x1="960" y1="-2.38" x2="960" y2="1055.91" gradientTransform="matrix(1 0 0 -1 0 1082)">
		<stop  offset="0" style="stop-color:#8AF7FF"/>
		<stop  offset="6.000000e-02" style="stop-color:#92F7FF"/>
		<stop  offset="0.31" style="stop-color:#B1FAFF"/>
		<stop  offset="0.56" style="stop-color:#C8FDFF"/>
		<stop  offset="0.79" style="stop-color:#D6FEFF"/>
		<stop  offset="1" style="stop-color:#DBFFFF"/>
	</linearGradient>
	<rect class="st0" width="1920" height="1081.3"/>
</g>
<g id="Layer_1-2_00000078752119257557470940000001031598489886714779_">
	<path class="st1" d="M1985.7,1028.6c0,80.8-72.6,133.8-262.2,112.6c-262-29.4-353.7,90.9-527.4,90.9c-214.5,0-149.2,138-228.4,138
		s6-140.5-201.7-140.5c-123.8,0-323.5-98.3-438.4-108.8c-264-24.1-397.2,21.7-397.2-20.9c0-51.5,122.6-49.7,316.1-135.6
		c219.1-97.3,367.7,87.7,524.6,35.2c309.4-103.5,502.9-62.9,735.8,4.1C1791.4,1085.6,1985.7,1028.6,1985.7,1028.6L1985.7,1028.6z"/>
</g>
</svg>
