<?xml version="1.0" encoding="UTF-8"?>
<svg id="Layer_2" data-name="Layer 2" xmlns="http://www.w3.org/2000/svg" viewBox="0 0 873.37 780.82">
  <defs>
    <style>
      .cls-1 {
        stroke: #fff;
        stroke-width: 14.59px;
      }

      .cls-1, .cls-2 {
        fill: none;
        stroke-linecap: round;
        stroke-linejoin: round;
      }

      .cls-2 {
        stroke: #76cceb;
        stroke-width: 5.74px;
      }

      .cls-3 {
        fill: #5dc9e8;
      }

      .cls-3, .cls-4, .cls-5 {
        stroke-width: 0px;
      }

      .cls-4 {
        fill: #76cceb;
      }

      .cls-5 {
        fill: #7fe9ff;
      }
    </style>
  </defs>
  <g id="Layer_1-2" data-name="Layer 1">
    <g>
      <path class="cls-3" d="m222.17,430.77c25.32-43.13,67.85-80.25,122.1-89.95,54.25-9.7,119.45,14.66,141.13,61.47,11.81,25.5,9.97,53.51,13.43,80.56,3.45,27.05,15.07,56.83,42.5,69.93,44.33,21.17,103.45-12.8,144.31,13.55,28.21,18.19,29.5,56.47,13.45,82.35-25.43,40.99-80.89,58.97-133.9,65.15-21.12,2.46-42.98,3.5-63.97-1.51-28.79-6.88-53.12-24.37-77.67-39.97-34.29-21.8-70.83-40.66-108.88-56.34-30.23-12.45-78.23-18.26-104.32-36.41-52.07-36.23-12.72-107,11.82-148.81Z"/>
      <path class="cls-5" d="m336.64,593.02c14.65-21.86,47.31-24.67,71.2-13.64,23.89,11.03,41.22,32.22,58.28,52.25,17.07,20.03,35.91,40.37,60.92,48.57,44.85,14.7,93.17-15.23,121.31-53.13,44.17-59.48,58.01-139.69,111.34-191.12,7.2-6.94,15.46-13.45,25.27-15.37,9.81-1.92,21.41,2.1,25.31,11.31,1.94,4.57,1.8,9.73,1.36,14.67-5.59,63.98-52.25,115.35-88.74,168.2-6.53,9.46-13.07,20.96-9.31,31.82,3.36,9.71,13.92,15.04,24,17.01,10.08,1.97,20.63,1.6,30.41,4.74,19.71,6.32,32.86,26.46,35.22,47.03,1.82,15.9-1.69,47.9-15.11,59.08-13.89,11.55-28.63,1.85-43.71.71-21.02-1.58-44.11,3.34-65.26,4.24-53.68,2.27-108.28,2.93-161.2-6.67-56.04-10.16-111.02-24.91-166.22-38.73-114.37-28.67-226.37-66.83-334.36-114.17-4.73-2.07-9.62-4.29-12.97-8.21-8.52-9.98-3.25-25.54,4.46-36.15,30.4-41.82,92.25-59.64,106.9-109.22,7.72-26.13-.49-54.3-11.75-79.11-15.79-34.79-37.63-66.8-50.75-102.68-13.12-35.88-16.33-78.35,4.4-110.45,20.73-32.09,71.14-45.24,98.43-18.5,19.36,18.97,21.03,50.11,13.78,76.22-7.25,26.12-21.81,49.57-31.2,75-9.39,25.42-13.03,55.38,1.06,78.53,14.09,23.15,51.09,32.28,68.77,11.74,20.16-23.43,5.96-68.77,33.15-83.48,11.96-6.47,27.68-2.71,37.64,6.54,9.97,9.25,14.86,22.91,16.41,36.42,5.98,52.07-31.46,98.1-46.65,148.25-1.88,6.22-3.38,13.16-.57,19.01,4.59,9.58,17.35,10.88,27.9,12.02,15.55,1.68,31.3,6.08,43.44,15.94,12.14,9.86,19.99,26,16.85,41.33Z"/>
      <path class="cls-4" d="m334.11,266.84c-3.33,15.74-18.78,25.81-34.53,22.48-15.74-3.33-25.81-18.78-22.48-34.53,3.33-15.74,18.78-25.81,34.53-22.48s25.81,18.78,22.48,34.53Z"/>
      <path class="cls-4" d="m214.73,80.88c-.93,4.38-5.23,7.18-9.61,6.26s-7.19-5.23-6.26-9.61,5.23-7.18,9.61-6.26,7.18,5.23,6.26,9.61Z"/>
      <path class="cls-4" d="m481.29,55.06c-5.21,24.65-29.41,40.41-54.06,35.21-24.65-5.21-40.41-29.41-35.21-54.06,5.21-24.65,29.41-40.41,54.06-35.21,24.65,5.21,40.41,29.41,35.21,54.06Z"/>
      <path class="cls-4" d="m327.34,478.28c-2.28,10.79-12.88,17.69-23.67,15.41s-17.69-12.88-15.41-23.67c2.28-10.79,12.87-17.69,23.67-15.41s17.69,12.88,15.41,23.67Z"/>
      <path class="cls-4" d="m724.94,392.93c-4.86,23.02-27.46,37.73-50.48,32.87s-37.73-27.46-32.87-50.48c4.86-23.02,27.46-37.73,50.48-32.87s37.73,27.46,32.87,50.48Z"/>
      <path class="cls-4" d="m605.97,502.75c-1.18,5.59-6.67,9.16-12.25,7.98s-9.16-6.67-7.98-12.25,6.67-9.16,12.25-7.98,9.16,6.67,7.98,12.25Z"/>
      <path class="cls-4" d="m656.48,441.14c-1.18,5.59-6.67,9.16-12.25,7.98s-9.16-6.67-7.98-12.25,6.67-9.16,12.25-7.98,9.16,6.67,7.98,12.25Z"/>
      <path class="cls-4" d="m348.69,427.27c-1.18,5.59-6.67,9.16-12.25,7.98s-9.16-6.67-7.98-12.25,6.67-9.16,12.25-7.98,9.16,6.67,7.98,12.25Z"/>
      <path class="cls-4" d="m173.8,88.11c-2.68,12.67-15.12,20.77-27.79,18.1s-20.77-15.12-18.1-27.79c2.68-12.67,15.12-20.77,27.79-18.1,12.67,2.68,20.78,15.12,18.1,27.79Z"/>
      <path class="cls-4" d="m873.09,652.6c-1.48,7-8.35,11.47-15.35,9.99-7-1.48-11.47-8.35-9.99-15.34,1.48-7,8.35-11.47,15.34-9.99s11.47,8.35,9.99,15.35Z"/>
      <path class="cls-1" d="m28.26,600.23c3.79-16.5,16.88-28.42,29.19-39.02,13.88-11.95,27.34-24.12,39.69-37.67"/>
      <path class="cls-1" d="m99.73,154.4c-24.79,19.09-39.62,50.46-38.65,81.73"/>
      <path class="cls-1" d="m138.35,434.3c3.99.19,5.82,5,6.39,8.95,2.26,15.51.19,31.63-5.91,46.07"/>
      <path class="cls-1" d="m786.63,439.35c-11.28,3.51-20.53,12.91-23.86,24.24"/>
      <path class="cls-1" d="m674.21,361.86c-9.08,3.97-15.57,13.28-16.16,23.17"/>
      <path class="cls-2" d="m77.93,665.57c31.72,13.16,64.23,24.43,97.29,33.73"/>
    </g>
  </g>
</svg>