<?xml version="1.0" encoding="UTF-8"?>
<svg id="Layer_2" data-name="Layer 2" xmlns="http://www.w3.org/2000/svg" viewBox="0 0 2055.41 434.47">
  <defs>
    <style>
      .cls-1 {
        fill: #fff;
        stroke-width: 0px;
      }
    </style>
  </defs>
  <g id="Layer_1-2" data-name="Layer 1">
    <path class="cls-1" d="m2055.41,92.95c0,80.82-72.64,133.85-262.24,112.61-262.02-29.36-353.67,90.92-527.44,90.92-214.54,0-149.17,138-228.41,138s6.02-140.45-201.74-140.45c-123.81,0-323.53-98.31-438.36-108.8C133.25,161.11,0,206.9,0,164.36,0,112.88,122.63,114.69,316.12,28.77c219.11-97.29,367.69,87.69,524.61,35.19,309.36-103.5,502.92-62.85,735.81,4.14,284.61,81.87,478.87,24.84,478.87,24.84Z"/>
  </g>
</svg>