<?xml version="1.0" encoding="UTF-8"?>
<svg id="Layer_2" data-name="Layer 2" xmlns="http://www.w3.org/2000/svg" viewBox="0 0 805.36 586.18">
  <defs>
    <style>
      .cls-1 {
        fill: #70d2eb;
      }

      .cls-1, .cls-2 {
        stroke-width: 0px;
      }

      .cls-2 {
        fill: #7fe9ff;
      }
    </style>
  </defs>
  <g id="Layer_1-2" data-name="Layer 1">
    <g>
      <g>
        <path class="cls-1" d="m153.02,565.44c-80.28-12.3-131.68-30.05-131.68-49.41,0-8.44,9.76-16.57,27.42-24.08v-3.68c-19.97,8.47-30.96,17.84-30.96,27.76,0,21.55,51.94,40.55,135.22,53.32v-3.91Z"/>
        <path class="cls-1" d="m732.7,474.94v3.81c43.42,10.72,69.13,23.6,69.13,37.29,0,36.11-178.71,66.61-390.24,66.61-64.16,0-125.28-2.81-179.32-7.73v3.82c53.51,4.77,114.34,7.44,179.32,7.44,220.81,0,393.78-30.81,393.78-70.15,0-15.47-26.77-29.62-72.66-41.1Z"/>
      </g>
      <path class="cls-1" d="m238.88,436.96c24.69,4.18,22.97-41.74,23.25-55.84,1.07-54.3-13.14-110.11-37.86-158.3-12.49-24.32-27.93-47.2-38.18-72.55-4.04-10-7.3-20.65-6.5-31.4.79-10.76,6.34-21.69,16.03-26.43,11.28-5.52,25.5-1.26,34.58,7.41,9.08,8.67,13.88,20.87,17.13,33,14.03,52.3,3.92,109.07,19.92,160.8,3.79,12.26,9.49,24.68,19.95,32.13,10.46,7.45,26.71,7.96,34.99-1.85,8.03-9.51,5.87-24.11,11.8-35.05,7.23-13.35,25.95-17.71,39.77-11.42,13.82,6.29,22.54,20.94,24.82,35.95.84,5.52,1.08,11.53,4.6,15.87,9.2,11.33,30.36.96,40.95,11.01,5.97,5.67,5.81,15.57,11.24,21.76,7.12,8.12,21.22,5.98,28.78-1.73,7.55-7.71,10.06-18.96,11.47-29.66,2.59-19.68,2.59-39.59,2.82-59.44.55-47.71,2.78-96.79,22.3-140.32,3.74-8.33,8.32-16.68,15.7-22.06,7.38-5.38,18.19-6.99,25.54-1.57,9.34,6.88,9.04,20.83,6.65,32.18-8.26,39.2-29.98,74.14-43.13,111.98-10.05,28.93-15.05,59.6-14.7,90.22.08,7.24.52,14.7,3.7,21.2,3.18,6.5,9.76,11.83,16.99,11.45,11.45-.6,17.45-13.68,20.25-24.79,2.8-11.12,6.62-24.34,17.6-27.64,10.09-3.03,20.96,5.32,23.78,15.47,2.82,10.15-.54,21.05-5.49,30.36-4.92,9.26-11.01,21.81-3.2,28.81,11.48,10.27,29.46-11.2,43.63-5.15,9.58,4.09,9.91,18.41,3.99,26.97-5.91,8.57-15.63,13.56-23.44,20.46-8.79,7.77-7.76,24.37-16.37,29.71-10.31,6.39-39.2.93-51.34.94-37.02.03-74.05.05-111.07.05-36.25,0-72.51,0-108.76-.01-18.51,0-37.02-.02-55.54-.03-5.84,0-51.34-3.65-53.22-.05,8.03-15.4,2.68-34.64-6.73-49.25-9.41-14.61-22.51-26.56-31.83-41.22-8.82-13.87-14.04-30.01-15.02-46.42-.69-11.56,2.02-25.22,12.47-30.22,12.75-6.09,27.46,5.3,33.51,18.07,15.46,32.58.71,74.44,19.26,105.37,2.6,4.33,6.05,8.48,10.81,10.15,1.44.5,2.79.86,4.08,1.07Z"/>
      <path class="cls-2" d="m710.28,453.75c-1.72-5.79-7.97-10.7-13.67-8.7-3.25,1.14-5.51,4.14-8.64,5.57-7.02,3.21-15.47-3.32-16.82-10.92-1.34-7.6,2.34-15.17,6.73-21.52,5.75-8.32,13.13-16.13,14.94-26.08,1.81-9.95-5.82-22.33-15.74-20.34-4.94.99-8.57,5.12-11.54,9.19-14.83,20.32-22.82,45.32-39.61,64.06-8.76,9.78-23.97,17.67-34.38,9.67-13.83-10.63-4.76-38.47-20.47-46.05-25.89-12.5-33.76,41.13-57.77,43.02-15.21,1.19-23.14-14.88-25.74-27.53-2.94-14.28-7.27-28.45-18.96-9.47-5.38,8.73-12.91,41.27-22.21,45.15-2.49,1.04-5.51.87-9.2-.97-5.21-2.59-8.65-7.63-12.36-12.11-10.14-12.23-25.93-11.35-35.44.41-5.1,2.04-10.42,3.95-14.61,1.41-12.55-7.63-11.28-22.11-27.77-27.45-12.28-3.97-26.27-3.81-35.29-14.48-8.86-10.48-14.77-23.3-24.29-33.19-9.52-9.89-24.88-16.44-37.01-10.02-18.18,9.62-17.63,41.02-37.29,47.06-10.92,3.35-22.11-3.39-31.73-9.57-9.62-6.17-21.48-12.24-31.93-7.63-13.06,5.76-14.48,23.4-13.93,37.66.18,4.76,1.52,2.36-2.1,5.45-2.04,1.74-4.97,1.76-7.61,2.22-6.99,1.19-13.2,6.23-15.81,12.82-2.62,6.59-1.55,14.51,2.71,20.17h596.28c1.5-5.85,3.01-12.06,1.29-17.85Z"/>
      <path class="cls-2" d="m132.28,353.8c0,6.54-5.3,11.85-11.85,11.85s-11.85-5.3-11.85-11.85,5.3-11.85,11.85-11.85,11.85,5.3,11.85,11.85Z"/>
      <path class="cls-2" d="m805.36,447.65c0,6.54-5.3,11.85-11.85,11.85s-11.85-5.3-11.85-11.85,5.3-11.85,11.85-11.85,11.85,5.3,11.85,11.85Z"/>
      <circle class="cls-2" cx="137.03" cy="270.81" r="4.75"/>
      <circle class="cls-2" cx="45.64" cy="372.02" r="4.75"/>
      <path class="cls-2" d="m172.75,181.69c0,11.92-9.67,21.59-21.59,21.59s-21.59-9.67-21.59-21.59,9.67-21.59,21.59-21.59,21.59,9.67,21.59,21.59Z"/>
      <path class="cls-2" d="m173.81,219c.67,5.1,3.81,9.49,6.9,13.61,7.5,9.99,15.34,19.8,21.5,30.67,7.94,14,12.97,29.64,14.68,45.63.37,3.41.62,6.97,2.33,9.95,1.71,2.98,5.39,5.16,8.6,3.93,3.87-1.48,4.68-6.52,4.71-10.65.16-24.66-6.37-49.28-18.39-70.8-5.36-9.6-12.8-23-21.92-29.54-7.64-5.47-20.48-8.4-18.41,7.19Z"/>
      <path class="cls-2" d="m108.58,218.21c0,5.96-4.83,10.8-10.8,10.8s-10.8-4.83-10.8-10.8,4.83-10.8,10.8-10.8,10.8,4.83,10.8,10.8Z"/>
      <path class="cls-2" d="m78.84,397.42c0,5.96-4.83,10.8-10.8,10.8s-10.8-4.83-10.8-10.8,4.83-10.8,10.8-10.8,10.8,4.83,10.8,10.8Z"/>
      <path class="cls-2" d="m132.28,81.14c0,3.27-2.65,5.92-5.92,5.92s-5.92-2.65-5.92-5.92,2.65-5.92,5.92-5.92,5.92,2.65,5.92,5.92Z"/>
      <path class="cls-2" d="m277.61,94.15c1.11,15.17,6.17,29.73,9.61,44.54,6.76,29.1,7.26,59.63,1.46,88.94-.74,3.72-1.57,7.62-.43,11.24,1.14,3.62,5.07,6.67,8.64,5.39,3.54-1.27,4.65-5.67,5.09-9.4,4.07-34.42-3.39-69.76,3.55-103.72,3.16-15.46,9.28-30.49,9.45-46.26.12-11.05-6.33-37.16-21.83-33.25-14.23,3.6-16.35,31.45-15.54,42.52Z"/>
      <path class="cls-2" d="m306.72,14.63c0,8.08-6.55,14.63-14.63,14.63s-14.63-6.55-14.63-14.63,6.55-14.63,14.63-14.63,14.63,6.55,14.63,14.63Z"/>
      <path class="cls-2" d="m241.36,44.21c0,1.34-1.09,2.42-2.42,2.42s-2.42-1.09-2.42-2.42,1.09-2.42,2.42-2.42,2.42,1.09,2.42,2.42Z"/>
      <path class="cls-2" d="m341.77,201.22c0,3.42-2.78,6.2-6.2,6.2s-6.2-2.78-6.2-6.2,2.78-6.2,6.2-6.2,6.2,2.78,6.2,6.2Z"/>
      <path class="cls-2" d="m456.51,323.14c0,10.75-8.71,19.46-19.46,19.46s-19.46-8.71-19.46-19.46,8.71-19.46,19.46-19.46,19.46,8.71,19.46,19.46Z"/>
      <path class="cls-2" d="m463.82,266.06c0,5.25-4.25,9.5-9.5,9.5s-9.5-4.25-9.5-9.5,4.25-9.5,9.5-9.5,9.5,4.25,9.5,9.5Z"/>
      <path class="cls-2" d="m549.57,228.14c-4.18,11.6-7.83,23.78-6.71,36.06.55,6.09,4.78,13.62,10.65,11.92,4.51-1.31,5.7-7.03,6.02-11.71.96-13.83,1.43-27.99,6.49-40.89,10.67-27.15,38.67-42.51,59.59-62.84,27.22-26.44,8.72-71.92-20.59-33.84-23.57,30.63-42.36,64.93-55.46,101.29Z"/>
      <path class="cls-2" d="m672.21,79.4c0,10-8.11,18.11-18.11,18.11s-18.11-8.11-18.11-18.11,8.11-18.11,18.11-18.11,18.11,8.11,18.11,18.11Z"/>
      <path class="cls-2" d="m534.32,49.12c0,4.05-3.28,7.33-7.33,7.33s-7.33-3.28-7.33-7.33,3.28-7.33,7.33-7.33,7.33,3.28,7.33,7.33Z"/>
      <path class="cls-2" d="m503.14,79.39c-3.76,5.21-5.29,11.67-6.37,18-10.41,60.77,12.38,124.42-2.66,184.21-1.6,6.34-1.7,15.75,4.8,16.5,5.48.63,8.38-6.26,9.14-11.73,3.2-22.99,1.07-46.37,2.27-69.56,1.43-27.77,7.69-55.28,18.41-80.93,4.92-11.78,10.89-23.68,10.84-36.45-.08-17.67-22.02-40.01-36.43-20.05Z"/>
      <path class="cls-2" d="m427.33,370.59c-.25,6.18,3.16,11.82,5.27,17.63,3.2,8.79,3.45,18.63.7,27.57-1.26,4.11-3.16,8.33-2.25,12.53.91,4.2,6.5,7.49,9.58,4.49,1.32-1.29,1.7-3.25,1.83-5.08.81-11.59-5.61-23.22-2.88-34.51,1.49-6.17,5.59-11.49,6.9-17.71,3.16-15.13-18.48-21.32-19.14-4.92Z"/>
      <path class="cls-2" d="m452.76,241.71c-2.89-10.89,4.67-21.47,7.94-32.25,1.2-3.96,1.81-8.36.19-12.17-2-4.74-7.22-7.63-12.36-7.81-5.56-.2-11.14,2.51-14.42,7-3.28,4.49-4.17,10.63-2.3,15.87,1.85,5.17,6.03,9.12,8.87,13.81,4.62,7.63,5.49,17.41,2.3,25.73-1.23,3.22-3.05,6.28-3.46,9.7-1.27,10.57,13.74,19.13,21.14,10.26,7.78-9.34-5.6-21.46-7.9-30.15Z"/>
      <path class="cls-2" d="m72.27,306.01c-12.79-8.79-14.38-26.61-20.64-40.81-2.3-5.22-5.61-10.35-10.72-12.89-6.34-3.15-14.38-1.49-19.92,2.93-5.98,4.78-9.39,12.62-8.79,20.25.6,7.64,5.18,14.85,11.83,18.64,6.57,3.74,14.48,4.11,21.67,6.47,11.67,3.83,21.35,13.26,25.49,24.82,1.6,4.47,2.45,9.3,5.09,13.24,8.16,12.18,31.52,7.66,31.29-8.25-.25-16.73-25.1-17.39-35.3-24.41Z"/>
      <path class="cls-2" d="m446.79,158.88c0,4.4-3.57,7.98-7.98,7.98s-7.98-3.57-7.98-7.98,3.57-7.98,7.98-7.98,7.98,3.57,7.98,7.98Z"/>
      <path class="cls-2" d="m686.43,239.52c0,9.6-7.79,17.39-17.39,17.39s-17.39-7.79-17.39-17.39,7.79-17.39,17.39-17.39,17.39,7.79,17.39,17.39Z"/>
      <path class="cls-2" d="m389.15,228.39c0,2.28-1.85,4.12-4.12,4.12s-4.12-1.85-4.12-4.12,1.85-4.12,4.12-4.12,4.12,1.85,4.12,4.12Z"/>
      <path class="cls-2" d="m676.33,276.37c0,2.28-1.85,4.12-4.12,4.12s-4.12-1.85-4.12-4.12,1.85-4.12,4.12-4.12,4.12,1.85,4.12,4.12Z"/>
      <circle class="cls-2" cx="86.99" cy="334.98" r="4.12"/>
      <path class="cls-2" d="m8.25,476.03c0,2.28-1.85,4.12-4.12,4.12s-4.12-1.85-4.12-4.12,1.85-4.12,4.12-4.12,4.12,1.85,4.12,4.12Z"/>
      <path class="cls-2" d="m665.16,324.52c0,3.05-2.48,5.53-5.53,5.53s-5.53-2.48-5.53-5.53,2.48-5.53,5.53-5.53,5.53,2.48,5.53,5.53Z"/>
      <path class="cls-2" d="m728.31,339.93c0,11.56-9.37,20.94-20.94,20.94s-20.94-9.37-20.94-20.94,9.37-20.94,20.94-20.94,20.94,9.37,20.94,20.94Z"/>
      <circle class="cls-2" cx="422.79" cy="104.21" r="28.99"/>
      <path class="cls-2" d="m714.02,417.64c1.01,3.08,2.29,6.17,1.64,9.3-.54,2.63-2.37,4.8-3.4,7.28-1.56,3.74-1.08,8.48,1.83,11.3,4.17,4.05,11,2.05,12.14-3.57,1.24-6.12-3.83-13.21,2.92-17.54,3.44-2.21,7.92-1.78,10.97-4.77,2.16-2.11,2.96-5.36,2.54-8.36-1.22-8.69-11.03-17.49-20.11-15.14-3.92,1.02-7.1,4.16-8.63,7.91-1.52,3.75-1.5,8.01-.42,11.91.15.55.33,1.11.51,1.66Z"/>
      <path class="cls-2" d="m706.56,430.9c0,2.65-2.15,4.8-4.8,4.8s-4.8-2.15-4.8-4.8,2.15-4.8,4.8-4.8,4.8,2.15,4.8,4.8Z"/>
      <path class="cls-2" d="m781.67,467.22c0,2.65-2.15,4.8-4.8,4.8s-4.8-2.15-4.8-4.8,2.15-4.8,4.8-4.8,4.8,2.15,4.8,4.8Z"/>
      <path class="cls-2" d="m554.91,296.01c0,4.23-3.43,7.67-7.67,7.67s-7.67-3.43-7.67-7.67,3.43-7.67,7.67-7.67,7.67,3.43,7.67,7.67Z"/>
      <path class="cls-2" d="m74.35,481.17c-20.05-9.94-13.84-44.45,6.91-52.81,20.75-8.36,45,3.82,58.6,21.59-2.16-14.44,11.66-28.98,26.19-27.55,14.53,1.43,25.25,18.4,20.31,32.14,4.78-20.6,34.87-29.59,50.17-15,10.83,10.33,12.49,26.82,19.59,40,9.28,17.22,28.89,28.32,48.43,27.4,8.56-.4,16.9-2.9,25.44-3.6,34.87-2.86,64.73,23.73,98.4,33.24,28.68,8.1,59.22,3.53,88.66-1.1-54.71,17.04-118.17,9.67-174.67.16-86.57-14.57-189.37-15.48-268.03-54.46Z"/>
      <path class="cls-2" d="m706.83,486.71c10.75-5.33,7.42-23.83-3.71-28.31-11.13-4.48-24.13,2.05-31.42,11.57,1.16-7.74-6.25-15.54-14.04-14.77-7.79.77-13.54,9.86-10.89,17.23-2.56-11.04-18.69-15.87-26.9-8.04-5.8,5.54-6.7,14.38-10.5,21.44-4.97,9.23-15.49,15.18-25.97,14.69-4.59-.22-9.06-1.56-13.64-1.93-18.7-1.53-34.7,12.72-52.76,17.82-15.37,4.34-31.75,1.89-47.53-.59,29.33,9.13,63.35,5.19,93.64.09,46.41-7.81,101.53-8.3,143.69-29.2Z"/>
      <path class="cls-2" d="m517.97,577.88c11.22.44,22.56-3.65,30.91-11.15,9.39-8.42,14.94-20.71,25.12-28.16,9.26-6.78,21.91-8.67,32.74-4.88,10.84,3.78,19.56,13.13,22.59,24.2,6.91-7.21,15.44-15.03,25.34-13.68,8.58,1.18,14.61,8.89,22.37,12.72,6.77,3.35,14.65,3.62,22.18,3.01,9.33-.75,19.13-3.1,27.43-7.86,4.37-2.51,8.37-5.71,11.52-9.65,3.44-4.31,4.9-9.76,8.07-14.23,1.87-2.64,4.83-4.82,8.06-4.62,2.55.16,4.79,1.76,6.63,3.53,3.83,3.7,6.79,8.62,8.02,13.82,1.55,6.5-3.82,7.07-9.04,9.18-12.18,4.94-24.69,9.08-37.37,12.53-25.18,6.85-51.05,10.97-77.02,13.3-42.38,3.81-85.02,2.92-127.56,1.93Z"/>
      <path class="cls-2" d="m59.76,541.12c-.62-6.13,7.71-9.48,13.59-7.65,5.88,1.84,10.49,6.52,16.27,8.68,1.98.74,4.44,1.09,6.03-.31,1.26-1.1,1.54-2.9,1.92-4.53,2.05-8.84,9.39-16.23,18.21-18.36,8.82-2.12,18.72,1.12,24.57,8.06,10.14,12.03,7.11,31.19,16.71,43.66-32.25-3.85-64.37-8.58-93.78-22.36-5.52-2.59-10.91-5.52-16.74-7.29-3.08-.94-6.3-1.57-9.06-3.22s-5.01-4.68-4.6-7.87c.53-4.11,5.4-6.55,9.48-5.78,4.07.76,7.33,3.81,9.92,7.05,2.59,3.24,4.29,7.28,7.48,9.92Z"/>
    </g>
  </g>
</svg>