<?xml version="1.0" encoding="utf-8"?>
<!-- Generator: Adobe Illustrator 28.0.0, SVG Export Plug-In . SVG Version: 6.00 Build 0)  -->
<svg version="1.1" id="Layer_1" xmlns="http://www.w3.org/2000/svg" xmlns:xlink="http://www.w3.org/1999/xlink" x="0px" y="0px"
	 viewBox="0 0 1950.8 1100.5" style="enable-background:new 0 0 1950.8 1100.5;" xml:space="preserve">
<style type="text/css">
	.st0{opacity:0.45;}
	.st1{fill:#B3FFFF;}
	.st2{fill:#CBFFFF;}
	.st3{fill:url(#SVGID_1_);}
</style>
<g>
	<g id="Layer_2_00000165928275124382492180000014485402111259350672_">
		<g id="Layer_1-2">
			<g id="mBqWOk" class="st0">
				
					<image style="overflow:visible;enable-background:new    ;" width="517" height="920" id="mBqWOk-2" xlink:href="760F17C8561441DF.png"  transform="matrix(-3.894614e-16 2.1287 -2.1201 -3.910436e-16 1950.77 -0.2209)">
				</image>
			</g>
			<rect y="-0.2" class="st1" width="1950.8" height="1100.7"/>
			<path class="st2" d="M1950.8,0H0v471.5c0,0,40.4-150.8,175.8-161.6c104.6-8.4,235.6,54.2,356.6,63
				c281,20.5,243.4-56.2,449.5-90.8c206.1-34.6,217.7,210.4,507.1,137.8c289.4-72.6,457.9,67.5,457.9,67.5c2,0.3,3.8-1.8,3.8-4.4
				L1950.8,0L1950.8,0z"/>
			
				<linearGradient id="SVGID_1_" gradientUnits="userSpaceOnUse" x1="474.1949" y1="2638.3435" x2="474.1949" y2="2391.2866" gradientTransform="matrix(1 0 0 1 501.19 -2374.8398)">
				<stop  offset="8.000000e-02" style="stop-color:#00C5EE"/>
				<stop  offset="0.21" style="stop-color:#00BDE8"/>
				<stop  offset="0.39" style="stop-color:#00AAD9"/>
				<stop  offset="0.6" style="stop-color:#008AC1"/>
				<stop  offset="0.84" style="stop-color:#005D9F"/>
				<stop  offset="1" style="stop-color:#003C86"/>
			</linearGradient>
			<path class="st3" d="M0-0.2h1950.8v358c0,0-215.8-220.2-483.7-133.4c-279.3,90.6-376.4,3.4-582.5-29.4
				c-206.1-32.9-133.4,167.6-422.8,98.7c-289.4-68.9-457.9,64-457.9,64C1.8,358,0,356,0,353.5V-0.2z"/>
		</g>
	</g>
</g>
</svg>
